<svg xmlns="http://www.w3.org/2000/svg" width="24" height="25" viewBox="0 0 24 25" fill="none">
<path opacity="0.3" d="M11.9997 7C8.20969 7 4.82969 9.13 3.17969 12.5C4.82969 15.87 8.19969 18 11.9997 18C15.7997 18 19.1697 15.87 20.8197 12.5C19.1697 9.13 15.7897 7 11.9997 7ZM11.9997 17C9.51969 17 7.49969 14.98 7.49969 12.5C7.49969 10.02 9.51969 8 11.9997 8C14.4797 8 16.4997 10.02 16.4997 12.5C16.4997 14.98 14.4797 17 11.9997 17Z" fill="#ADAAAA"/>
<path d="M12 5C7 5 2.73 8.11 1 12.5C2.73 16.89 7 20 12 20C17 20 21.27 16.89 23 12.5C21.27 8.11 17 5 12 5ZM12 18C8.21 18 4.83 15.87 3.18 12.5C4.83 9.13 8.21 7 12 7C15.79 7 19.17 9.13 20.82 12.5C19.17 15.87 15.79 18 12 18ZM12 8C9.52 8 7.5 10.02 7.5 12.5C7.5 14.98 9.52 17 12 17C14.48 17 16.5 14.98 16.5 12.5C16.5 10.02 14.48 8 12 8ZM12 15C10.62 15 9.5 13.88 9.5 12.5C9.5 11.12 10.62 10 12 10C13.38 10 14.5 11.12 14.5 12.5C14.5 13.88 13.38 15 12 15Z" fill="#ADAAAA"/>
</svg>